<svg xmlns="http://www.w3.org/2000/svg" height="18" width="18" viewBox="0 0 18 18"><title>users</title><g stroke-width="1.5" fill="none" stroke="#212121" class="nc-icon-wrapper"><circle cx="5.75" cy="6.25" r="2" stroke-linecap="round" stroke-linejoin="round"></circle><path d="M9.609,15.122c.523-.175,.83-.744,.636-1.259-.685-1.818-2.436-3.112-4.494-3.112s-3.809,1.294-4.494,3.112c-.194,.516,.113,1.085,.636,1.259,.962,.321,2.281,.628,3.859,.628s2.897-.307,3.858-.628Z" stroke-linecap="round" stroke-linejoin="round"></path><circle cx="12" cy="3.75" r="2" stroke-linecap="round" stroke-linejoin="round" stroke="#212121"></circle><path d="M12.749,13.227c1.248-.077,2.304-.336,3.109-.605,.523-.175,.83-.744,.636-1.259-.685-1.818-2.436-3.112-4.494-3.112-.977,0-1.885,.292-2.643,.793" stroke-linecap="round" stroke-linejoin="round" stroke="#212121"></path></g></svg>